<svg height="512pt" viewBox="-85 0 512 512.00096" width="512pt" xmlns="http://www.w3.org/2000/svg"><path d="m334.761719 255.8125c-10.695313-10.695312-28.03125-10.695312-38.726563 0l-39.082031 39.078125c-3.386719 3.390625-9.144531 2.054687-10.703125-2.476563-7.042969-20.496093-14.976562-41.410156-23.628906-62.664062h-102.714844c-8.625 21.1875-16.539062 42.039062-23.5625 62.472656-1.558594 4.53125-7.316406 5.867188-10.703125 2.476563l-38.890625-38.886719c-10.695312-10.695312-28.035156-10.695312-38.726562 0-10.695313 10.695312-10.695313 28.03125 0 38.726562l61.09375 61.09375c4.003906 4.007813 5.65625 9.792969 4.398437 15.3125-7.917969 34.679688-12.210937 67.652344-11.847656 98.4375h219.191406c.363281-30.726562-3.910156-63.628906-11.800781-98.234374-1.257813-5.519532.394531-11.300782 4.398437-15.304688l61.304688-61.304688c10.695312-10.695312 10.695312-28.03125 0-38.726562zm0 0" fill="#ffb258"/><path d="m334.761719 294.539062c10.695312-10.695312 10.695312-28.03125 0-38.726562-8.710938-8.714844-21.835938-10.324219-32.179688-4.84375 2.351563 1.25 4.5625 2.859375 6.542969 4.84375 10.695312 10.695312 10.695312 28.035156 0 38.726562l-61.300781 61.304688c-4.003907 4.003906-5.660157 9.789062-4.398438 15.308594 7.886719 34.601562 12.160157 67.507812 11.796875 98.234375h25.636719c.363281-30.726563-3.910156-63.632813-11.800781-98.234375-1.257813-5.519532.394531-11.304688 4.398437-15.308594zm0 0" fill="#e8a250"/><path d="m171.394531 296.507812c26.308594 0 49.78125-12.105468 65.179688-31.042968-4.402344-11.789063-9.058594-23.695313-13.953125-35.714844h-102.714844c-4.863281 11.941406-9.492188 23.777344-13.871094 35.492188 15.398438 19.0625 38.945313 31.265624 65.359375 31.265624zm0 0" fill="#e8a250"/><path d="m216.300781 124.71875-45.167969-23.941406 56.265626-91.769532c5.207031-8.492187 16.117187-11.472656 24.917968-6.808593 8.800782 4.664062 12.460938 15.371093 8.355469 24.445312zm0 0" fill="#ffb258"/><path d="m171.132812 100.777344 45.167969 23.941406 20.582031-45.492188c-9.457031-11.769531-22.007812-20.945312-36.429687-26.269531zm0 0" fill="#e8a250"/><path d="m126.484375 124.71875 45.167969-23.941406-56.265625-91.769532c-5.207031-8.492187-16.117188-11.472656-24.917969-6.808593-8.800781 4.664062-12.460938 15.371093-8.355469 24.445312zm0 0" fill="#ffb258"/><path d="m105.902344 79.226562 20.582031 45.492188 45.167969-23.941406-29.320313-47.820313c-14.425781 5.324219-26.972656 14.5-36.429687 26.269531zm0 0" fill="#e8a250"/><path d="m171.394531 274.769531c-46.382812 0-83.980469-37.597656-83.980469-83.976562v-35.320313c0-46.382812 37.597657-83.980468 83.980469-83.980468 46.378907 0 83.976563 37.597656 83.976563 83.980468v35.320313c0 46.378906-37.597656 83.976562-83.976563 83.976562zm0 0" fill="#ececee"/><path d="m219.4375 86.609375c9.519531 13.617187 15.121094 30.171875 15.121094 48.046875v35.320312c0 46.378907-37.601563 83.976563-83.980469 83.976563-17.875 0-34.429687-5.597656-48.046875-15.117187 15.179688 21.71875 40.351562 35.933593 68.863281 35.933593 46.378907 0 83.976563-37.597656 83.976563-83.980469v-35.320312c0-28.503906-14.214844-53.679688-35.933594-68.859375zm0 0" fill="#d2d2d4"/><path d="m290.296875 512h-237.808594c-11.765625 0-21.308593-9.539062-21.308593-21.308594 0-11.765625 9.542968-21.308594 21.308593-21.308594h237.808594c11.769531 0 21.308594 9.542969 21.308594 21.308594 0 11.769532-9.539063 21.308594-21.308594 21.308594zm0 0" fill="#ececee"/><path d="m291.882812 469.386719h-31.179687c10.894531 0 19.722656 8.828125 19.722656 19.71875v3.175781c0 10.890625-8.828125 19.71875-19.722656 19.71875h31.179687c10.890626 0 19.722657-8.828125 19.722657-19.71875v-3.175781c0-10.890625-8.828125-19.71875-19.722657-19.71875zm0 0" fill="#d2d2d4"/><path d="m156.015625 159.4375c0 7.558594-6.128906 13.6875-13.6875 13.6875s-13.683594-6.128906-13.683594-13.6875 6.125-13.683594 13.683594-13.683594 13.6875 6.125 13.6875 13.683594zm0 0" fill="#475a72"/><path d="m214.132812 159.4375c0 7.558594-6.125 13.6875-13.683593 13.6875-7.558594 0-13.6875-6.128906-13.6875-13.6875s6.128906-13.683594 13.6875-13.683594c7.558593 0 13.683593 6.125 13.683593 13.683594zm0 0" fill="#475a72"/><path d="m171.390625 233.164062c18.394531 0 33.359375-14.964843 33.359375-33.359374 0-4.269532-3.457031-7.726563-7.726562-7.726563-4.265626 0-7.726563 3.460937-7.726563 7.726563 0 9.875-8.03125 17.910156-17.90625 17.910156s-17.910156-8.035156-17.910156-17.910156c0-4.269532-3.457031-7.726563-7.726563-7.726563-4.265625 0-7.726562 3.460937-7.726562 7.726563 0 18.394531 14.964844 33.359374 33.363281 33.359374zm0 0" fill="#ff6e88"/></svg>